<svg xmlns="http://www.w3.org/2000/svg" viewBox="0 0 64 64">
  <!-- Favicon de AdoptAR: huella terracota sobre fondo crema -->
  <rect width="64" height="64" rx="14" fill="#faf4ea"/>
  <g fill="#d95d28">
    <!-- Dedos -->
    <ellipse cx="17" cy="22" rx="6.5" ry="8.5" transform="rotate(-18 17 22)"/>
    <ellipse cx="29" cy="15.5" rx="6.5" ry="8.5" transform="rotate(-5 29 15.5)"/>
    <ellipse cx="42" cy="17" rx="6.5" ry="8.5" transform="rotate(10 42 17)"/>
    <ellipse cx="51.5" cy="27" rx="6" ry="8" transform="rotate(28 51.5 27)"/>
    <!-- Almohadilla -->
    <path d="M33 30c8.5 0 16 6.5 16 14.5 0 5.5-4 8.5-8.5 8.5-3 0-5-1.4-7.5-1.4S28.5 53 25.5 53C21 53 17 50 17 44.5 17 36.5 24.5 30 33 30z"/>
  </g>
</svg>
